<svg xmlns="http://www.w3.org/2000/svg" width="900" height="110" viewBox="0 0 900 110" role="img" aria-label="Currently Learning">
  <title>Currently Learning</title>
  <defs>
    <linearGradient id="bg" x1="0" y1="0" x2="1" y2="1"><stop offset="0" stop-color="#03050F"/><stop offset="1" stop-color="#060919"/></linearGradient>
    <radialGradient id="haze" cx=".5" cy="1" r=".7" gradientTransform="translate(0 0) scale(1 1)">
      <stop offset="0" stop-color="#1B2A7A" stop-opacity=".12"/><stop offset="1" stop-color="#2B3FA8" stop-opacity="0"/>
    </radialGradient>
    <linearGradient id="txt" gradientUnits="userSpaceOnUse" x1="0" y1="0" x2="551.75" y2="0"><stop offset="0" stop-color="#F4FBFF"/><stop offset="1" stop-color="#D3CBFA"/></linearGradient>
    <linearGradient id="line" x1="0" y1="0" x2="1" y2="0">
      <stop offset="0" stop-color="#37D6F0" stop-opacity="0"/>
      <stop offset=".2" stop-color="#37D6F0" stop-opacity=".55"/>
      <stop offset=".5" stop-color="#8FEAF8" stop-opacity=".85"/>
      <stop offset=".8" stop-color="#8F82E8" stop-opacity=".55"/>
      <stop offset="1" stop-color="#8F82E8" stop-opacity="0"/>
    </linearGradient>
    <linearGradient id="beam" gradientUnits="userSpaceOnUse" x1="0" y1="0" x2="200" y2="0">
      <stop offset="0" stop-color="#FFFFFF" stop-opacity="0"/><stop offset=".5" stop-color="#FFFFFF" stop-opacity=".95"/><stop offset="1" stop-color="#FFFFFF" stop-opacity="0"/>
      <animateTransform attributeName="gradientTransform" type="translate" values="-200 0;900 0" calcMode="spline" keyTimes="0;1" keySplines=".4 .1 .5 .9" dur="7s" repeatCount="indefinite"/>
    </linearGradient>
    <filter id="g" x="-5%" y="-1200%" width="110%" height="2500%"><feGaussianBlur stdDeviation="5"/></filter>
    <filter id="tg" x="-10%" y="-60%" width="120%" height="220%"><feGaussianBlur stdDeviation="6"/></filter>
    <clipPath id="clip"><rect width="900" height="110" rx="14"/></clipPath>
  </defs>
  <g clip-path="url(#clip)">
    <rect width="900" height="110" fill="url(#bg)"/>
    <rect width="900" height="110" fill="url(#haze)"/>
    <circle cx="220" cy="95" r="0.6" fill="#BFF1F7" opacity=".15"><animate attributeName="opacity" values=".05;.4;.05" dur="6.8s" begin="-0.4s" repeatCount="indefinite"/></circle><circle cx="145" cy="82" r="1" fill="#BFF1F7" opacity=".15"><animate attributeName="opacity" values=".05;.4;.05" dur="6.8s" begin="-6.4s" repeatCount="indefinite"/></circle><circle cx="416" cy="51" r="0.8" fill="#BFF1F7" opacity=".15"><animate attributeName="opacity" values=".05;.4;.05" dur="8.3s" begin="-9.0s" repeatCount="indefinite"/></circle><circle cx="368" cy="54" r="0.6" fill="#BFF1F7" opacity=".15"><animate attributeName="opacity" values=".05;.4;.05" dur="8.8s" begin="-5.2s" repeatCount="indefinite"/></circle><circle cx="428" cy="90" r="1" fill="#BFF1F7" opacity=".15"><animate attributeName="opacity" values=".05;.4;.05" dur="6.5s" begin="-2.6s" repeatCount="indefinite"/></circle><circle cx="863" cy="17" r="1" fill="#BFF1F7" opacity=".15"><animate attributeName="opacity" values=".05;.4;.05" dur="9.3s" begin="-1.1s" repeatCount="indefinite"/></circle><circle cx="79" cy="32" r="0.6" fill="#BFF1F7" opacity=".15"><animate attributeName="opacity" values=".05;.4;.05" dur="8.0s" begin="-6.5s" repeatCount="indefinite"/></circle><circle cx="787" cy="62" r="0.6" fill="#BFF1F7" opacity=".15"><animate attributeName="opacity" values=".05;.4;.05" dur="8.4s" begin="-5.4s" repeatCount="indefinite"/></circle><circle cx="61" cy="72" r="0.6" fill="#BFF1F7" opacity=".15"><animate attributeName="opacity" values=".05;.4;.05" dur="9.8s" begin="-5.8s" repeatCount="indefinite"/></circle>
    <g transform="translate(174.12 48)">
      <path d="M3.13 0Q2.27 0 1.55 -0.42Q0.84 -0.84 0.42 -1.55Q0 -2.26 0 -3.13V-14.15Q0 -15.02 0.42 -15.73Q0.84 -16.44 1.55 -16.86Q2.27 -17.28 3.13 -17.28H17.23V-14.68H3.48Q3.09 -14.68 2.84 -14.43Q2.59 -14.19 2.59 -13.8V-3.48Q2.59 -3.1 2.84 -2.85Q3.09 -2.6 3.48 -2.6H17.23V0ZM32.73 -17.28V-3.13Q32.73 -2.27 33.15 -1.55Q33.57 -0.84 34.28 -0.42Q35 0 35.86 0H45.63Q46.49 0 47.2 -0.42Q47.92 -0.84 48.34 -1.55Q48.76 -2.27 48.76 -3.13V-17.28H46.16V-3.2Q46.16 -2.95 45.98 -2.78Q45.81 -2.6 45.56 -2.6H35.93Q35.68 -2.6 35.51 -2.78Q35.33 -2.95 35.33 -3.2V-17.28ZM64.26 0V-17.28H77.16Q78.02 -17.28 78.73 -16.86Q79.45 -16.44 79.87 -15.73Q80.29 -15.01 80.29 -14.15V-10.4Q80.29 -9.54 79.87 -8.83Q79.45 -8.12 78.73 -7.7L81.26 0H78.46L75.96 -7.28H66.86V0ZM66.86 -9.88H77.08Q77.33 -9.88 77.5 -10.05Q77.68 -10.22 77.68 -10.47V-14.08Q77.68 -14.33 77.5 -14.5Q77.33 -14.68 77.08 -14.68H66.86ZM96.76 0V-17.28H109.66Q110.52 -17.28 111.23 -16.86Q111.95 -16.44 112.37 -15.73Q112.79 -15.01 112.79 -14.15V-10.4Q112.79 -9.54 112.37 -8.83Q111.95 -8.12 111.23 -7.7L113.76 0H110.96L108.46 -7.28H99.36V0ZM99.36 -9.88H109.58Q109.83 -9.88 110 -10.05Q110.18 -10.22 110.18 -10.47V-14.08Q110.18 -14.33 110 -14.5Q109.83 -14.68 109.58 -14.68H99.36ZM129.26 0V-17.28H145.1V-14.68H131.87V-9.95H142.51V-7.33H131.87V-2.6H145.1V0ZM160.6 0V-17.28H163.7L175.27 -3.5V-17.28H177.88V0H174.79L163.2 -13.79V0ZM200.73 0V-14.68H193.38V-17.28H210.66V-14.68H203.33V0ZM226.16 0V-17.3H228.75V-2.6H243.44V0ZM258.94 -17.28H262.04L267.69 -9.5L273.34 -17.28H276.44L268.99 -7.1V0H266.39V-7.1ZM320.44 0V-17.3H323.03V-2.6H337.72V0ZM353.22 0V-17.28H369.06V-14.68H355.83V-9.95H366.47V-7.33H355.83V-2.6H369.06V0ZM384.56 0L391.46 -17.28H395.16L402.06 0H399.26L397.86 -3.6H388.76L387.36 0ZM389.76 -6.2H396.86L393.31 -15ZM417.56 0V-17.28H430.46Q431.32 -17.28 432.03 -16.86Q432.75 -16.44 433.17 -15.73Q433.59 -15.01 433.59 -14.15V-10.4Q433.59 -9.54 433.17 -8.83Q432.75 -8.12 432.03 -7.7L434.56 0H431.76L429.26 -7.28H420.16V0ZM420.16 -9.88H430.38Q430.63 -9.88 430.8 -10.05Q430.98 -10.22 430.98 -10.47V-14.08Q430.98 -14.33 430.8 -14.5Q430.63 -14.68 430.38 -14.68H420.16ZM450.06 0V-17.28H453.16L464.73 -3.5V-17.28H467.34V0H464.25L452.66 -13.79V0ZM482.84 0V-17.28H485.44V0ZM500.94 0V-17.28H504.04L515.61 -3.5V-17.28H518.22V0H515.13L503.54 -13.79V0ZM536.85 0Q535.99 0 535.27 -0.42Q534.56 -0.84 534.14 -1.55Q533.72 -2.26 533.72 -3.13V-14.15Q533.72 -15.02 534.14 -15.73Q534.56 -16.44 535.27 -16.86Q535.99 -17.28 536.85 -17.28H548.62Q549.48 -17.28 550.19 -16.86Q550.91 -16.44 551.33 -15.73Q551.75 -15.02 551.75 -14.15V-12.9H549.15V-14.08Q549.15 -14.33 548.97 -14.5Q548.8 -14.68 548.55 -14.68H537.2Q536.81 -14.68 536.56 -14.43Q536.31 -14.19 536.31 -13.8V-3.48Q536.31 -3.1 536.56 -2.85Q536.81 -2.6 537.2 -2.6H548.55Q548.8 -2.6 548.97 -2.78Q549.15 -2.95 549.15 -3.2V-7.33H543.22V-9.95H551.75V-3.13Q551.75 -2.27 551.33 -1.55Q550.91 -0.84 550.19 -0.42Q549.48 0 548.62 0Z" fill="#37D6F0" opacity=".16" filter="url(#tg)"/>
      <path d="M3.13 0Q2.27 0 1.55 -0.42Q0.84 -0.84 0.42 -1.55Q0 -2.26 0 -3.13V-14.15Q0 -15.02 0.42 -15.73Q0.84 -16.44 1.55 -16.86Q2.27 -17.28 3.13 -17.28H17.23V-14.68H3.48Q3.09 -14.68 2.84 -14.43Q2.59 -14.19 2.59 -13.8V-3.48Q2.59 -3.1 2.84 -2.85Q3.09 -2.6 3.48 -2.6H17.23V0ZM32.73 -17.28V-3.13Q32.73 -2.27 33.15 -1.55Q33.57 -0.84 34.28 -0.42Q35 0 35.86 0H45.63Q46.49 0 47.2 -0.42Q47.92 -0.84 48.34 -1.55Q48.76 -2.27 48.76 -3.13V-17.28H46.16V-3.2Q46.16 -2.95 45.98 -2.78Q45.81 -2.6 45.56 -2.6H35.93Q35.68 -2.6 35.51 -2.78Q35.33 -2.95 35.33 -3.2V-17.28ZM64.26 0V-17.28H77.16Q78.02 -17.28 78.73 -16.86Q79.45 -16.44 79.87 -15.73Q80.29 -15.01 80.29 -14.15V-10.4Q80.29 -9.54 79.87 -8.83Q79.45 -8.12 78.73 -7.7L81.26 0H78.46L75.96 -7.28H66.86V0ZM66.86 -9.88H77.08Q77.33 -9.88 77.5 -10.05Q77.68 -10.22 77.68 -10.47V-14.08Q77.68 -14.33 77.5 -14.5Q77.33 -14.68 77.08 -14.68H66.86ZM96.76 0V-17.28H109.66Q110.52 -17.28 111.23 -16.86Q111.95 -16.44 112.37 -15.73Q112.79 -15.01 112.79 -14.15V-10.4Q112.79 -9.54 112.37 -8.83Q111.95 -8.12 111.23 -7.7L113.76 0H110.96L108.46 -7.28H99.36V0ZM99.36 -9.88H109.58Q109.83 -9.88 110 -10.05Q110.18 -10.22 110.18 -10.47V-14.08Q110.18 -14.33 110 -14.5Q109.83 -14.68 109.58 -14.68H99.36ZM129.26 0V-17.28H145.1V-14.68H131.87V-9.95H142.51V-7.33H131.87V-2.6H145.1V0ZM160.6 0V-17.28H163.7L175.27 -3.5V-17.28H177.88V0H174.79L163.2 -13.79V0ZM200.73 0V-14.68H193.38V-17.28H210.66V-14.68H203.33V0ZM226.16 0V-17.3H228.75V-2.6H243.44V0ZM258.94 -17.28H262.04L267.69 -9.5L273.34 -17.28H276.44L268.99 -7.1V0H266.39V-7.1ZM320.44 0V-17.3H323.03V-2.6H337.72V0ZM353.22 0V-17.28H369.06V-14.68H355.83V-9.95H366.47V-7.33H355.83V-2.6H369.06V0ZM384.56 0L391.46 -17.28H395.16L402.06 0H399.26L397.86 -3.6H388.76L387.36 0ZM389.76 -6.2H396.86L393.31 -15ZM417.56 0V-17.28H430.46Q431.32 -17.28 432.03 -16.86Q432.75 -16.44 433.17 -15.73Q433.59 -15.01 433.59 -14.15V-10.4Q433.59 -9.54 433.17 -8.83Q432.75 -8.12 432.03 -7.7L434.56 0H431.76L429.26 -7.28H420.16V0ZM420.16 -9.88H430.38Q430.63 -9.88 430.8 -10.05Q430.98 -10.22 430.98 -10.47V-14.08Q430.98 -14.33 430.8 -14.5Q430.63 -14.68 430.38 -14.68H420.16ZM450.06 0V-17.28H453.16L464.73 -3.5V-17.28H467.34V0H464.25L452.66 -13.79V0ZM482.84 0V-17.28H485.44V0ZM500.94 0V-17.28H504.04L515.61 -3.5V-17.28H518.22V0H515.13L503.54 -13.79V0ZM536.85 0Q535.99 0 535.27 -0.42Q534.56 -0.84 534.14 -1.55Q533.72 -2.26 533.72 -3.13V-14.15Q533.72 -15.02 534.14 -15.73Q534.56 -16.44 535.27 -16.86Q535.99 -17.28 536.85 -17.28H548.62Q549.48 -17.28 550.19 -16.86Q550.91 -16.44 551.33 -15.73Q551.75 -15.02 551.75 -14.15V-12.9H549.15V-14.08Q549.15 -14.33 548.97 -14.5Q548.8 -14.68 548.55 -14.68H537.2Q536.81 -14.68 536.56 -14.43Q536.31 -14.19 536.31 -13.8V-3.48Q536.31 -3.1 536.56 -2.85Q536.81 -2.6 537.2 -2.6H548.55Q548.8 -2.6 548.97 -2.78Q549.15 -2.95 549.15 -3.2V-7.33H543.22V-9.95H551.75V-3.13Q551.75 -2.27 551.33 -1.55Q550.91 -0.84 550.19 -0.42Q549.48 0 548.62 0Z" fill="url(#txt)"/>
    </g>
    <g>
      <animate attributeName="opacity" values=".8;1;.8" calcMode="spline" keyTimes="0;.5;1" keySplines=".45 .05 .55 .95;.45 .05 .55 .95" dur="6s" repeatCount="indefinite"/>
      <rect x="80" y="74" width="740" height="5" fill="url(#line)" filter="url(#g)" opacity=".55"/>
      <rect x="80" y="76" width="740" height="1.2" fill="url(#line)"/>
    </g>
    <rect x="80" y="76" width="740" height="1.2" fill="url(#beam)"/>
  </g>
</svg>
